<svg xmlns="http://www.w3.org/2000/svg" viewBox="0 0 1127 382" fill="#2d5a3d"><circle cx="980.0" cy="14.0" r="3"/><circle cx="994.0" cy="14.0" r="3"/><circle cx="28.0" cy="28.0" r="3"/><circle cx="966.0" cy="28.0" r="3"/><circle cx="980.0" cy="28.0" r="3"/><circle cx="994.0" cy="28.0" r="3"/><circle cx="1008.0" cy="28.0" r="3"/><circle cx="14.0" cy="42.0" r="3"/><circle cx="28.0" cy="42.0" r="3"/><circle cx="42.0" cy="42.0" r="3"/><circle cx="952.0" cy="42.0" r="3"/><circle cx="966.0" cy="42.0" r="3"/><circle cx="980.0" cy="42.0" r="3"/><circle cx="994.0" cy="42.0" r="3"/><circle cx="1008.0" cy="42.0" r="3"/><circle cx="1022.0" cy="42.0" r="3"/><circle cx="28.0" cy="56.0" r="3"/><circle cx="42.0" cy="56.0" r="3"/><circle cx="56.0" cy="56.0" r="3"/><circle cx="70.0" cy="56.0" r="3"/><circle cx="126.0" cy="56.0" r="3"/><circle cx="140.0" cy="56.0" r="3"/><circle cx="952.0" cy="56.0" r="3"/><circle cx="966.0" cy="56.0" r="3"/><circle cx="980.0" cy="56.0" r="3"/><circle cx="994.0" cy="56.0" r="3"/><circle cx="1008.0" cy="56.0" r="3"/><circle cx="1022.0" cy="56.0" r="3"/><circle cx="28.0" cy="70.0" r="3"/><circle cx="42.0" cy="70.0" r="3"/><circle cx="56.0" cy="70.0" r="3"/><circle cx="70.0" cy="70.0" r="3"/><circle cx="126.0" cy="70.0" r="3"/><circle cx="140.0" cy="70.0" r="3"/><circle cx="154.0" cy="70.0" r="3"/><circle cx="924.0" cy="70.0" r="3"/><circle cx="938.0" cy="70.0" r="3"/><circle cx="952.0" cy="70.0" r="3"/><circle cx="966.0" cy="70.0" r="3"/><circle cx="980.0" cy="70.0" r="3"/><circle cx="994.0" cy="70.0" r="3"/><circle cx="1008.0" cy="70.0" r="3"/><circle cx="1022.0" cy="70.0" r="3"/><circle cx="1036.0" cy="70.0" r="3"/><circle cx="28.0" cy="84.0" r="3"/><circle cx="42.0" cy="84.0" r="3"/><circle cx="56.0" cy="84.0" r="3"/><circle cx="70.0" cy="84.0" r="3"/><circle cx="84.0" cy="84.0" r="3"/><circle cx="98.0" cy="84.0" r="3"/><circle cx="112.0" cy="84.0" r="3"/><circle cx="126.0" cy="84.0" r="3"/><circle cx="140.0" cy="84.0" r="3"/><circle cx="154.0" cy="84.0" r="3"/><circle cx="168.0" cy="84.0" r="3"/><circle cx="910.0" cy="84.0" r="3"/><circle cx="924.0" cy="84.0" r="3"/><circle cx="938.0" cy="84.0" r="3"/><circle cx="952.0" cy="84.0" r="3"/><circle cx="966.0" cy="84.0" r="3"/><circle cx="980.0" cy="84.0" r="3"/><circle cx="994.0" cy="84.0" r="3"/><circle cx="1008.0" cy="84.0" r="3"/><circle cx="1022.0" cy="84.0" r="3"/><circle cx="1036.0" cy="84.0" r="3"/><circle cx="1050.0" cy="84.0" r="3"/><circle cx="1064.0" cy="84.0" r="3"/><circle cx="1078.0" cy="84.0" r="3"/><circle cx="28.0" cy="98.0" r="3"/><circle cx="42.0" cy="98.0" r="3"/><circle cx="56.0" cy="98.0" r="3"/><circle cx="70.0" cy="98.0" r="3"/><circle cx="84.0" cy="98.0" r="3"/><circle cx="98.0" cy="98.0" r="3"/><circle cx="112.0" cy="98.0" r="3"/><circle cx="126.0" cy="98.0" r="3"/><circle cx="140.0" cy="98.0" r="3"/><circle cx="154.0" cy="98.0" r="3"/><circle cx="168.0" cy="98.0" r="3"/><circle cx="182.0" cy="98.0" r="3"/><circle cx="896.0" cy="98.0" r="3"/><circle cx="910.0" cy="98.0" r="3"/><circle cx="924.0" cy="98.0" r="3"/><circle cx="938.0" cy="98.0" r="3"/><circle cx="952.0" cy="98.0" r="3"/><circle cx="966.0" cy="98.0" r="3"/><circle cx="980.0" cy="98.0" r="3"/><circle cx="994.0" cy="98.0" r="3"/><circle cx="1008.0" cy="98.0" r="3"/><circle cx="1022.0" cy="98.0" r="3"/><circle cx="1036.0" cy="98.0" r="3"/><circle cx="1050.0" cy="98.0" r="3"/><circle cx="1064.0" cy="98.0" r="3"/><circle cx="1078.0" cy="98.0" r="3"/><circle cx="1092.0" cy="98.0" r="3"/><circle cx="1106.0" cy="98.0" r="3"/><circle cx="28.0" cy="112.0" r="3"/><circle cx="42.0" cy="112.0" r="3"/><circle cx="56.0" cy="112.0" r="3"/><circle cx="70.0" cy="112.0" r="3"/><circle cx="84.0" cy="112.0" r="3"/><circle cx="98.0" cy="112.0" r="3"/><circle cx="112.0" cy="112.0" r="3"/><circle cx="126.0" cy="112.0" r="3"/><circle cx="140.0" cy="112.0" r="3"/><circle cx="154.0" cy="112.0" r="3"/><circle cx="168.0" cy="112.0" r="3"/><circle cx="182.0" cy="112.0" r="3"/><circle cx="896.0" cy="112.0" r="3"/><circle cx="910.0" cy="112.0" r="3"/><circle cx="924.0" cy="112.0" r="3"/><circle cx="938.0" cy="112.0" r="3"/><circle cx="952.0" cy="112.0" r="3"/><circle cx="966.0" cy="112.0" r="3"/><circle cx="980.0" cy="112.0" r="3"/><circle cx="994.0" cy="112.0" r="3"/><circle cx="1008.0" cy="112.0" r="3"/><circle cx="1022.0" cy="112.0" r="3"/><circle cx="1036.0" cy="112.0" r="3"/><circle cx="1050.0" cy="112.0" r="3"/><circle cx="1064.0" cy="112.0" r="3"/><circle cx="1078.0" cy="112.0" r="3"/><circle cx="1092.0" cy="112.0" r="3"/><circle cx="1106.0" cy="112.0" r="3"/><circle cx="28.0" cy="126.0" r="3"/><circle cx="42.0" cy="126.0" r="3"/><circle cx="56.0" cy="126.0" r="3"/><circle cx="70.0" cy="126.0" r="3"/><circle cx="84.0" cy="126.0" r="3"/><circle cx="98.0" cy="126.0" r="3"/><circle cx="112.0" cy="126.0" r="3"/><circle cx="126.0" cy="126.0" r="3"/><circle cx="140.0" cy="126.0" r="3"/><circle cx="154.0" cy="126.0" r="3"/><circle cx="168.0" cy="126.0" r="3"/><circle cx="182.0" cy="126.0" r="3"/><circle cx="196.0" cy="126.0" r="3"/><circle cx="896.0" cy="126.0" r="3"/><circle cx="910.0" cy="126.0" r="3"/><circle cx="924.0" cy="126.0" r="3"/><circle cx="938.0" cy="126.0" r="3"/><circle cx="952.0" cy="126.0" r="3"/><circle cx="966.0" cy="126.0" r="3"/><circle cx="980.0" cy="126.0" r="3"/><circle cx="994.0" cy="126.0" r="3"/><circle cx="1008.0" cy="126.0" r="3"/><circle cx="1022.0" cy="126.0" r="3"/><circle cx="1036.0" cy="126.0" r="3"/><circle cx="1050.0" cy="126.0" r="3"/><circle cx="1064.0" cy="126.0" r="3"/><circle cx="1078.0" cy="126.0" r="3"/><circle cx="1092.0" cy="126.0" r="3"/><circle cx="1106.0" cy="126.0" r="3"/><circle cx="42.0" cy="140.0" r="3"/><circle cx="56.0" cy="140.0" r="3"/><circle cx="70.0" cy="140.0" r="3"/><circle cx="84.0" cy="140.0" r="3"/><circle cx="98.0" cy="140.0" r="3"/><circle cx="112.0" cy="140.0" r="3"/><circle cx="126.0" cy="140.0" r="3"/><circle cx="140.0" cy="140.0" r="3"/><circle cx="154.0" cy="140.0" r="3"/><circle cx="168.0" cy="140.0" r="3"/><circle cx="182.0" cy="140.0" r="3"/><circle cx="196.0" cy="140.0" r="3"/><circle cx="896.0" cy="140.0" r="3"/><circle cx="910.0" cy="140.0" r="3"/><circle cx="924.0" cy="140.0" r="3"/><circle cx="938.0" cy="140.0" r="3"/><circle cx="952.0" cy="140.0" r="3"/><circle cx="966.0" cy="140.0" r="3"/><circle cx="980.0" cy="140.0" r="3"/><circle cx="994.0" cy="140.0" r="3"/><circle cx="1008.0" cy="140.0" r="3"/><circle cx="1022.0" cy="140.0" r="3"/><circle cx="1036.0" cy="140.0" r="3"/><circle cx="1050.0" cy="140.0" r="3"/><circle cx="1064.0" cy="140.0" r="3"/><circle cx="1078.0" cy="140.0" r="3"/><circle cx="42.0" cy="154.0" r="3"/><circle cx="56.0" cy="154.0" r="3"/><circle cx="70.0" cy="154.0" r="3"/><circle cx="84.0" cy="154.0" r="3"/><circle cx="98.0" cy="154.0" r="3"/><circle cx="112.0" cy="154.0" r="3"/><circle cx="126.0" cy="154.0" r="3"/><circle cx="140.0" cy="154.0" r="3"/><circle cx="154.0" cy="154.0" r="3"/><circle cx="168.0" cy="154.0" r="3"/><circle cx="182.0" cy="154.0" r="3"/><circle cx="196.0" cy="154.0" r="3"/><circle cx="826.0" cy="154.0" r="3"/><circle cx="896.0" cy="154.0" r="3"/><circle cx="910.0" cy="154.0" r="3"/><circle cx="924.0" cy="154.0" r="3"/><circle cx="938.0" cy="154.0" r="3"/><circle cx="952.0" cy="154.0" r="3"/><circle cx="966.0" cy="154.0" r="3"/><circle cx="980.0" cy="154.0" r="3"/><circle cx="994.0" cy="154.0" r="3"/><circle cx="1008.0" cy="154.0" r="3"/><circle cx="1022.0" cy="154.0" r="3"/><circle cx="1036.0" cy="154.0" r="3"/><circle cx="1050.0" cy="154.0" r="3"/><circle cx="1064.0" cy="154.0" r="3"/><circle cx="1078.0" cy="154.0" r="3"/><circle cx="42.0" cy="168.0" r="3"/><circle cx="56.0" cy="168.0" r="3"/><circle cx="70.0" cy="168.0" r="3"/><circle cx="84.0" cy="168.0" r="3"/><circle cx="98.0" cy="168.0" r="3"/><circle cx="112.0" cy="168.0" r="3"/><circle cx="126.0" cy="168.0" r="3"/><circle cx="140.0" cy="168.0" r="3"/><circle cx="154.0" cy="168.0" r="3"/><circle cx="168.0" cy="168.0" r="3"/><circle cx="182.0" cy="168.0" r="3"/><circle cx="196.0" cy="168.0" r="3"/><circle cx="812.0" cy="168.0" r="3"/><circle cx="826.0" cy="168.0" r="3"/><circle cx="840.0" cy="168.0" r="3"/><circle cx="868.0" cy="168.0" r="3"/><circle cx="882.0" cy="168.0" r="3"/><circle cx="896.0" cy="168.0" r="3"/><circle cx="910.0" cy="168.0" r="3"/><circle cx="924.0" cy="168.0" r="3"/><circle cx="938.0" cy="168.0" r="3"/><circle cx="952.0" cy="168.0" r="3"/><circle cx="966.0" cy="168.0" r="3"/><circle cx="980.0" cy="168.0" r="3"/><circle cx="994.0" cy="168.0" r="3"/><circle cx="1008.0" cy="168.0" r="3"/><circle cx="1022.0" cy="168.0" r="3"/><circle cx="1036.0" cy="168.0" r="3"/><circle cx="1050.0" cy="168.0" r="3"/><circle cx="56.0" cy="182.0" r="3"/><circle cx="70.0" cy="182.0" r="3"/><circle cx="84.0" cy="182.0" r="3"/><circle cx="98.0" cy="182.0" r="3"/><circle cx="112.0" cy="182.0" r="3"/><circle cx="126.0" cy="182.0" r="3"/><circle cx="140.0" cy="182.0" r="3"/><circle cx="154.0" cy="182.0" r="3"/><circle cx="168.0" cy="182.0" r="3"/><circle cx="182.0" cy="182.0" r="3"/><circle cx="196.0" cy="182.0" r="3"/><circle cx="798.0" cy="182.0" r="3"/><circle cx="812.0" cy="182.0" r="3"/><circle cx="826.0" cy="182.0" r="3"/><circle cx="840.0" cy="182.0" r="3"/><circle cx="854.0" cy="182.0" r="3"/><circle cx="868.0" cy="182.0" r="3"/><circle cx="882.0" cy="182.0" r="3"/><circle cx="896.0" cy="182.0" r="3"/><circle cx="910.0" cy="182.0" r="3"/><circle cx="56.0" cy="196.0" r="3"/><circle cx="70.0" cy="196.0" r="3"/><circle cx="84.0" cy="196.0" r="3"/><circle cx="98.0" cy="196.0" r="3"/><circle cx="112.0" cy="196.0" r="3"/><circle cx="126.0" cy="196.0" r="3"/><circle cx="140.0" cy="196.0" r="3"/><circle cx="154.0" cy="196.0" r="3"/><circle cx="168.0" cy="196.0" r="3"/><circle cx="182.0" cy="196.0" r="3"/><circle cx="196.0" cy="196.0" r="3"/><circle cx="798.0" cy="196.0" r="3"/><circle cx="812.0" cy="196.0" r="3"/><circle cx="826.0" cy="196.0" r="3"/><circle cx="840.0" cy="196.0" r="3"/><circle cx="854.0" cy="196.0" r="3"/><circle cx="868.0" cy="196.0" r="3"/><circle cx="882.0" cy="196.0" r="3"/><circle cx="896.0" cy="196.0" r="3"/><circle cx="910.0" cy="196.0" r="3"/><circle cx="70.0" cy="210.0" r="3"/><circle cx="84.0" cy="210.0" r="3"/><circle cx="98.0" cy="210.0" r="3"/><circle cx="112.0" cy="210.0" r="3"/><circle cx="126.0" cy="210.0" r="3"/><circle cx="140.0" cy="210.0" r="3"/><circle cx="154.0" cy="210.0" r="3"/><circle cx="168.0" cy="210.0" r="3"/><circle cx="182.0" cy="210.0" r="3"/><circle cx="196.0" cy="210.0" r="3"/><circle cx="784.0" cy="210.0" r="3"/><circle cx="798.0" cy="210.0" r="3"/><circle cx="812.0" cy="210.0" r="3"/><circle cx="826.0" cy="210.0" r="3"/><circle cx="840.0" cy="210.0" r="3"/><circle cx="854.0" cy="210.0" r="3"/><circle cx="868.0" cy="210.0" r="3"/><circle cx="882.0" cy="210.0" r="3"/><circle cx="896.0" cy="210.0" r="3"/><circle cx="910.0" cy="210.0" r="3"/><circle cx="84.0" cy="224.0" r="3"/><circle cx="98.0" cy="224.0" r="3"/><circle cx="112.0" cy="224.0" r="3"/><circle cx="126.0" cy="224.0" r="3"/><circle cx="140.0" cy="224.0" r="3"/><circle cx="154.0" cy="224.0" r="3"/><circle cx="168.0" cy="224.0" r="3"/><circle cx="182.0" cy="224.0" r="3"/><circle cx="196.0" cy="224.0" r="3"/><circle cx="210.0" cy="224.0" r="3"/><circle cx="770.0" cy="224.0" r="3"/><circle cx="784.0" cy="224.0" r="3"/><circle cx="798.0" cy="224.0" r="3"/><circle cx="812.0" cy="224.0" r="3"/><circle cx="826.0" cy="224.0" r="3"/><circle cx="840.0" cy="224.0" r="3"/><circle cx="854.0" cy="224.0" r="3"/><circle cx="868.0" cy="224.0" r="3"/><circle cx="882.0" cy="224.0" r="3"/><circle cx="896.0" cy="224.0" r="3"/><circle cx="84.0" cy="238.0" r="3"/><circle cx="98.0" cy="238.0" r="3"/><circle cx="112.0" cy="238.0" r="3"/><circle cx="126.0" cy="238.0" r="3"/><circle cx="140.0" cy="238.0" r="3"/><circle cx="154.0" cy="238.0" r="3"/><circle cx="168.0" cy="238.0" r="3"/><circle cx="182.0" cy="238.0" r="3"/><circle cx="196.0" cy="238.0" r="3"/><circle cx="210.0" cy="238.0" r="3"/><circle cx="728.0" cy="238.0" r="3"/><circle cx="742.0" cy="238.0" r="3"/><circle cx="756.0" cy="238.0" r="3"/><circle cx="770.0" cy="238.0" r="3"/><circle cx="784.0" cy="238.0" r="3"/><circle cx="798.0" cy="238.0" r="3"/><circle cx="812.0" cy="238.0" r="3"/><circle cx="826.0" cy="238.0" r="3"/><circle cx="840.0" cy="238.0" r="3"/><circle cx="854.0" cy="238.0" r="3"/><circle cx="868.0" cy="238.0" r="3"/><circle cx="882.0" cy="238.0" r="3"/><circle cx="896.0" cy="238.0" r="3"/><circle cx="98.0" cy="252.0" r="3"/><circle cx="112.0" cy="252.0" r="3"/><circle cx="126.0" cy="252.0" r="3"/><circle cx="140.0" cy="252.0" r="3"/><circle cx="154.0" cy="252.0" r="3"/><circle cx="168.0" cy="252.0" r="3"/><circle cx="182.0" cy="252.0" r="3"/><circle cx="196.0" cy="252.0" r="3"/><circle cx="210.0" cy="252.0" r="3"/><circle cx="672.0" cy="252.0" r="3"/><circle cx="686.0" cy="252.0" r="3"/><circle cx="700.0" cy="252.0" r="3"/><circle cx="714.0" cy="252.0" r="3"/><circle cx="728.0" cy="252.0" r="3"/><circle cx="742.0" cy="252.0" r="3"/><circle cx="756.0" cy="252.0" r="3"/><circle cx="770.0" cy="252.0" r="3"/><circle cx="784.0" cy="252.0" r="3"/><circle cx="798.0" cy="252.0" r="3"/><circle cx="812.0" cy="252.0" r="3"/><circle cx="826.0" cy="252.0" r="3"/><circle cx="840.0" cy="252.0" r="3"/><circle cx="854.0" cy="252.0" r="3"/><circle cx="868.0" cy="252.0" r="3"/><circle cx="882.0" cy="252.0" r="3"/><circle cx="112.0" cy="266.0" r="3"/><circle cx="126.0" cy="266.0" r="3"/><circle cx="140.0" cy="266.0" r="3"/><circle cx="154.0" cy="266.0" r="3"/><circle cx="168.0" cy="266.0" r="3"/><circle cx="182.0" cy="266.0" r="3"/><circle cx="196.0" cy="266.0" r="3"/><circle cx="210.0" cy="266.0" r="3"/><circle cx="224.0" cy="266.0" r="3"/><circle cx="658.0" cy="266.0" r="3"/><circle cx="672.0" cy="266.0" r="3"/><circle cx="686.0" cy="266.0" r="3"/><circle cx="700.0" cy="266.0" r="3"/><circle cx="714.0" cy="266.0" r="3"/><circle cx="728.0" cy="266.0" r="3"/><circle cx="742.0" cy="266.0" r="3"/><circle cx="756.0" cy="266.0" r="3"/><circle cx="770.0" cy="266.0" r="3"/><circle cx="784.0" cy="266.0" r="3"/><circle cx="798.0" cy="266.0" r="3"/><circle cx="812.0" cy="266.0" r="3"/><circle cx="826.0" cy="266.0" r="3"/><circle cx="840.0" cy="266.0" r="3"/><circle cx="854.0" cy="266.0" r="3"/><circle cx="868.0" cy="266.0" r="3"/><circle cx="126.0" cy="280.0" r="3"/><circle cx="140.0" cy="280.0" r="3"/><circle cx="154.0" cy="280.0" r="3"/><circle cx="168.0" cy="280.0" r="3"/><circle cx="182.0" cy="280.0" r="3"/><circle cx="196.0" cy="280.0" r="3"/><circle cx="210.0" cy="280.0" r="3"/><circle cx="224.0" cy="280.0" r="3"/><circle cx="238.0" cy="280.0" r="3"/><circle cx="658.0" cy="280.0" r="3"/><circle cx="672.0" cy="280.0" r="3"/><circle cx="686.0" cy="280.0" r="3"/><circle cx="700.0" cy="280.0" r="3"/><circle cx="714.0" cy="280.0" r="3"/><circle cx="728.0" cy="280.0" r="3"/><circle cx="742.0" cy="280.0" r="3"/><circle cx="756.0" cy="280.0" r="3"/><circle cx="770.0" cy="280.0" r="3"/><circle cx="784.0" cy="280.0" r="3"/><circle cx="798.0" cy="280.0" r="3"/><circle cx="812.0" cy="280.0" r="3"/><circle cx="826.0" cy="280.0" r="3"/><circle cx="840.0" cy="280.0" r="3"/><circle cx="854.0" cy="280.0" r="3"/><circle cx="868.0" cy="280.0" r="3"/><circle cx="154.0" cy="294.0" r="3"/><circle cx="168.0" cy="294.0" r="3"/><circle cx="182.0" cy="294.0" r="3"/><circle cx="196.0" cy="294.0" r="3"/><circle cx="210.0" cy="294.0" r="3"/><circle cx="224.0" cy="294.0" r="3"/><circle cx="238.0" cy="294.0" r="3"/><circle cx="658.0" cy="294.0" r="3"/><circle cx="672.0" cy="294.0" r="3"/><circle cx="686.0" cy="294.0" r="3"/><circle cx="700.0" cy="294.0" r="3"/><circle cx="714.0" cy="294.0" r="3"/><circle cx="728.0" cy="294.0" r="3"/><circle cx="742.0" cy="294.0" r="3"/><circle cx="756.0" cy="294.0" r="3"/><circle cx="770.0" cy="294.0" r="3"/><circle cx="784.0" cy="294.0" r="3"/><circle cx="798.0" cy="294.0" r="3"/><circle cx="812.0" cy="294.0" r="3"/><circle cx="826.0" cy="294.0" r="3"/><circle cx="840.0" cy="294.0" r="3"/><circle cx="854.0" cy="294.0" r="3"/><circle cx="868.0" cy="294.0" r="3"/><circle cx="168.0" cy="308.0" r="3"/><circle cx="182.0" cy="308.0" r="3"/><circle cx="196.0" cy="308.0" r="3"/><circle cx="210.0" cy="308.0" r="3"/><circle cx="224.0" cy="308.0" r="3"/><circle cx="238.0" cy="308.0" r="3"/><circle cx="252.0" cy="308.0" r="3"/><circle cx="574.0" cy="308.0" r="3"/><circle cx="588.0" cy="308.0" r="3"/><circle cx="630.0" cy="308.0" r="3"/><circle cx="644.0" cy="308.0" r="3"/><circle cx="658.0" cy="308.0" r="3"/><circle cx="672.0" cy="308.0" r="3"/><circle cx="686.0" cy="308.0" r="3"/><circle cx="700.0" cy="308.0" r="3"/><circle cx="714.0" cy="308.0" r="3"/><circle cx="728.0" cy="308.0" r="3"/><circle cx="742.0" cy="308.0" r="3"/><circle cx="756.0" cy="308.0" r="3"/><circle cx="770.0" cy="308.0" r="3"/><circle cx="784.0" cy="308.0" r="3"/><circle cx="798.0" cy="308.0" r="3"/><circle cx="812.0" cy="308.0" r="3"/><circle cx="826.0" cy="308.0" r="3"/><circle cx="840.0" cy="308.0" r="3"/><circle cx="854.0" cy="308.0" r="3"/><circle cx="182.0" cy="322.0" r="3"/><circle cx="196.0" cy="322.0" r="3"/><circle cx="210.0" cy="322.0" r="3"/><circle cx="224.0" cy="322.0" r="3"/><circle cx="238.0" cy="322.0" r="3"/><circle cx="252.0" cy="322.0" r="3"/><circle cx="574.0" cy="322.0" r="3"/><circle cx="588.0" cy="322.0" r="3"/><circle cx="602.0" cy="322.0" r="3"/><circle cx="616.0" cy="322.0" r="3"/><circle cx="630.0" cy="322.0" r="3"/><circle cx="644.0" cy="322.0" r="3"/><circle cx="658.0" cy="322.0" r="3"/><circle cx="672.0" cy="322.0" r="3"/><circle cx="686.0" cy="322.0" r="3"/><circle cx="700.0" cy="322.0" r="3"/><circle cx="714.0" cy="322.0" r="3"/><circle cx="728.0" cy="322.0" r="3"/><circle cx="742.0" cy="322.0" r="3"/><circle cx="756.0" cy="322.0" r="3"/><circle cx="770.0" cy="322.0" r="3"/><circle cx="784.0" cy="322.0" r="3"/><circle cx="798.0" cy="322.0" r="3"/><circle cx="812.0" cy="322.0" r="3"/><circle cx="826.0" cy="322.0" r="3"/><circle cx="840.0" cy="322.0" r="3"/><circle cx="854.0" cy="322.0" r="3"/><circle cx="210.0" cy="336.0" r="3"/><circle cx="224.0" cy="336.0" r="3"/><circle cx="238.0" cy="336.0" r="3"/><circle cx="252.0" cy="336.0" r="3"/><circle cx="574.0" cy="336.0" r="3"/><circle cx="588.0" cy="336.0" r="3"/><circle cx="602.0" cy="336.0" r="3"/><circle cx="616.0" cy="336.0" r="3"/><circle cx="630.0" cy="336.0" r="3"/><circle cx="644.0" cy="336.0" r="3"/><circle cx="658.0" cy="336.0" r="3"/><circle cx="672.0" cy="336.0" r="3"/><circle cx="686.0" cy="336.0" r="3"/><circle cx="700.0" cy="336.0" r="3"/><circle cx="714.0" cy="336.0" r="3"/><circle cx="770.0" cy="336.0" r="3"/><circle cx="784.0" cy="336.0" r="3"/><circle cx="798.0" cy="336.0" r="3"/><circle cx="812.0" cy="336.0" r="3"/><circle cx="826.0" cy="336.0" r="3"/><circle cx="840.0" cy="336.0" r="3"/><circle cx="588.0" cy="350.0" r="3"/><circle cx="602.0" cy="350.0" r="3"/><circle cx="616.0" cy="350.0" r="3"/><circle cx="630.0" cy="350.0" r="3"/><circle cx="644.0" cy="350.0" r="3"/><circle cx="658.0" cy="350.0" r="3"/><circle cx="672.0" cy="350.0" r="3"/><circle cx="686.0" cy="350.0" r="3"/><circle cx="700.0" cy="350.0" r="3"/><circle cx="602.0" cy="364.0" r="3"/><circle cx="616.0" cy="364.0" r="3"/><circle cx="630.0" cy="364.0" r="3"/><circle cx="686.0" cy="364.0" r="3"/></svg>